# xmcd
#
# Track frame offsets: 
#        150
#        19457
#        41542
#        58122
#        92292
#        137837
#        156357
#        198041
#
# Disc length: 3026 seconds
#
# Revision: 0
# Processed by: cddbd v1.5.2PL0 Copyright (c) Steve Scherf et al.
# Submitted via: ExactAudioCopy v0.99pb5
#
DISCID=640bd008
DTITLE=Earl Thomas and The Kings Of Rhythm - Live At Biscuits and Blues
DYEAR=1900
DGENRE=Blues
TTITLE0=Prancin'
TTITLE1=Maybe The Next Life
TTITLE2=River Deep Mountain High
TTITLE3=Proud Mary b/w Nutbush City Limits
TTITLE4=Rather Go Blind b/w Elijah Rock
TTITLE5=Never Been To Spain
TTITLE6=Working Together
TTITLE7=Daylight
EXTD=
EXTT0=
EXTT1=
EXTT2=
EXTT3=
EXTT4=
EXTT5=
EXTT6=
EXTT7=
PLAYORDER=
